<?xml version="1.0" encoding="iso-8859-1"?>
<!-- Generator: Adobe Illustrator 19.0.0, SVG Export Plug-In . SVG Version: 6.00 Build 0)  -->
<svg version="1.1" id="Layer_1" xmlns="http://www.w3.org/2000/svg" xmlns:xlink="http://www.w3.org/1999/xlink" x="0px" y="0px"
	 viewBox="0 0 458.239 458.239" style="enable-background:new 0 0 458.239 458.239;" xml:space="preserve">
<g>
	<g>
		<path d="M438.969,346.349l-78.313-78.313c-5.736-5.736-15.038-5.736-20.775,0l-24.35,24.35l-12.299-12.3
			c25.307-30.589,39.081-68.676,39.081-108.881c0-45.72-17.804-88.704-50.134-121.032c-66.892-66.894-175.165-66.902-242.065,0
			c-66.738,66.737-66.738,175.327,0,242.065c64.066,64.065,165.587,66.516,232.551,8.831l12.091,12.092l-26.779,26.779
			c-5.734,5.733-5.736,15.04,0,20.775l78.313,78.313c25.611,25.613,67.066,25.616,92.679,0
			C464.581,413.416,464.584,371.963,438.969,346.349z M271.405,271.465c-55.413,55.412-145.099,55.416-200.516-0.001
			c-55.282-55.283-55.282-145.234,0-200.516c55.413-55.412,145.098-55.417,200.516,0c26.78,26.78,41.528,62.385,41.528,100.258
			C312.933,209.079,298.185,244.685,271.405,271.465z M418.194,418.253c-14.131,14.132-36.998,14.131-51.129,0l-67.925-67.925
			l51.129-51.129l67.926,67.925C432.323,381.252,432.326,404.122,418.194,418.253z"/>
	</g>
</g>
<g>
</g>
<g>
</g>
<g>
</g>
<g>
</g>
<g>
</g>
<g>
</g>
<g>
</g>
<g>
</g>
<g>
</g>
<g>
</g>
<g>
</g>
<g>
</g>
<g>
</g>
<g>
</g>
<g>
</g>
</svg>